PathFileType  4	(X/Y/Z) C:\Users\antoi\Documents\MyRepositories\mobilecap\ResultsAnalysis
DataRate	CameraRate	NumFrames	NumMarkers	Units	OrigDataRate	OrigDataStartFrame	OrigNumFrames
100.0	100.0	4	51	mm	100.0	1	221
Frame#	Time	r_knee			r_shank_antsup			r_ankle			r_calc			r_5meta			r_toe			L_knee			L_shank_antsup			L_ankle			L_calc			L_5meta			L_toe			r_sh2			r_sh3			r_sh4			L_sh2			L_sh3			r_thigh1			r_thigh2			r_thigh3			r_thigh4			r_thigh5			L_thigh1			L_thigh2			L_thigh3			L_thigh4			r.ASIS			r.PSIS			L.ASIS			L.PSIS			C7			R_Shoulder			L_Shoulder			R_Sternum			L_Sternum			R_humerus			R_elbow_med			R_elbow_lat			R_forearm			R_wrist_radius			R_wrist_ulna			L_humerus			L_elbow_med			L_elbow_lat			L_forearm			L_wrist_radius			L_wrist_ulna			R_HJC			L_HJC			R_HJC_reg			L_HJC_reg			
		X1	Y1	Z1	X2	Y2	Z2	X3	Y3	Z3	X4	Y4	Z4	X5	Y5	Z5	X6	Y6	Z6	X7	Y7	Z7	X8	Y8	Z8	X9	Y9	Z9	X10	Y10	Z10	X11	Y11	Z11	X12	Y12	Z12	X13	Y13	Z13	X14	Y14	Z14	X15	Y15	Z15	X16	Y16	Z16	X17	Y17	Z17	X18	Y18	Z18	X19	Y19	Z19	X20	Y20	Z20	X21	Y21	Z21	X22	Y22	Z22	X23	Y23	Z23	X24	Y24	Z24	X25	Y25	Z25	X26	Y26	Z26	X27	Y27	Z27	X28	Y28	Z28	X29	Y29	Z29	X30	Y30	Z30	X31	Y31	Z31	X32	Y32	Z32	X33	Y33	Z33	X34	Y34	Z34	X35	Y35	Z35	X36	Y36	Z36	X37	Y37	Z37	X38	Y38	Z38	X39	Y39	Z39	X40	Y40	Z40	X41	Y41	Z41	X42	Y42	Z42	X43	Y43	Z43	X44	Y44	Z44	X45	Y45	Z45	X46	Y46	Z46	X47	Y47	Z47	X48	Y48	Z48	X49	Y49	Z49	X50	Y50	Z50	X51	Y51	Z51	

1	0.00000000	-1117.02879	771.21812	-448.00079	-1115.53230	697.26309	-424.97036	-1178.72780	398.97467	-467.89620	-1246.78345	361.81348	-506.52092	-1078.08328	353.90515	-436.19252	-1033.71609	374.73249	-490.93611	-1139.31658	770.37401	-722.07660	-1118.87505	706.74736	-728.58442	-1177.47902	401.68676	-721.81557	-1246.75601	364.73420	-675.56977	-1085.17176	351.63982	-750.97961	-1035.58730	374.26782	-695.87432	-1131.94229	586.20636	-423.76049	-1189.36645	706.25033	-437.23028	-1213.20628	592.98603	-438.82552	-1205.61465	722.00533	-748.39968	-1211.11701	599.86428	-755.82748	-1031.98065	1081.02931	-444.71789	-1029.97772	967.71551	-440.81389	-1079.42835	943.34958	-402.36753	-1129.65930	1079.33150	-383.66845	-1133.19113	962.92425	-399.23029	-1048.25565	1049.45165	-747.45885	-1055.49586	909.53426	-736.17219	-1160.46201	1053.88755	-766.89857	-1162.95573	913.07984	-749.34248	-1045.70527	1230.63211	-452.45251	-1227.27057	1243.93320	-532.32852	-1032.57571	1218.36735	-708.83917	-1224.87996	1235.28838	-640.39350	-1169.81639	1708.84506	-599.84380	-1121.30031	1655.27372	-439.50389	-1092.47644	1652.41020	-759.44139	-1055.45828	1623.25025	-570.10847	-1052.35377	1622.85683	-613.71381	-1108.73329	1411.56590	-368.50644	-1138.39933	1309.02843	-430.49283	-1137.90080	1325.59260	-360.65447	-1078.00873	1220.46576	-334.56918	-1038.72083	1108.39566	-326.05624	-1080.87948	1094.84958	-328.19730	-1053.98316	1517.82292	-797.92255	-1115.83417	1307.19159	-751.49857	-1098.52257	1312.68674	-810.47755	-1034.11728	1221.86379	-821.67606	-1002.54881	1100.42344	-803.26417	-1035.17137	1087.44887	-817.53899	-1109.81604	1153.60485	-478.85127	-1098.39691	1146.75759	-678.70059	-1105.14743	1150.33702	-483.74146	-1101.40774	1136.81370	-652.79037	
2	0.01000000	-1115.82433	771.04557	-447.97269	-1114.37439	697.07077	-425.19926	-1178.80747	398.97719	-468.01274	-1246.84808	361.80933	-506.58946	-1078.13977	354.02161	-436.28710	-1033.77087	375.03521	-491.03392	-1137.95080	770.47284	-722.44960	-1117.46193	706.19355	-728.38820	-1177.48661	401.59876	-721.88693	-1246.89214	364.54136	-675.43341	-1085.19534	351.70817	-750.94631	-1035.63090	374.36768	-695.93128	-1131.32214	586.22713	-424.05392	-1188.34957	706.12751	-437.62219	-1212.38930	593.18604	-438.72519	-1204.05610	721.88053	-748.63566	-1210.21642	599.80933	-756.20752	-1032.26057	1080.34982	-444.17577	-1029.04134	967.44958	-441.46172	-1078.18983	943.23170	-403.21943	-1128.49523	1079.14938	-383.66918	-1132.10822	962.62476	-399.41774	-1047.58039	1049.51878	-747.03282	-1054.77590	909.59626	-735.79379	-1159.87316	1053.88922	-767.38513	-1162.19324	913.04066	-749.81302	-1044.97135	1230.47593	-452.47624	-1226.63474	1244.02247	-531.90911	-1032.12921	1218.40846	-708.98490	-1224.33995	1235.58586	-640.33964	-1168.51880	1708.78002	-600.00226	-1120.13521	1655.37976	-439.43397	-1091.06627	1652.35707	-759.45796	-1055.05895	1622.57913	-571.07076	-1050.98203	1623.03733	-613.54010	-1107.63227	1411.78027	-368.57747	-1137.44603	1309.15580	-430.79373	-1136.69563	1325.70006	-360.82927	-1076.70550	1220.88639	-334.92801	-1037.26534	1108.80090	-326.22041	-1079.29188	1095.00118	-328.74344	-1052.50837	1517.84784	-797.69588	-1114.21404	1307.01263	-751.17423	-1096.77375	1312.68735	-809.90757	-1032.35062	1221.90974	-821.30477	-1001.19078	1100.31809	-802.58564	-1033.72813	1087.35528	-816.85423	-1109.19058	1153.53050	-478.89010	-1098.04374	1146.88418	-678.76157	-1104.49478	1150.06119	-483.89237	-1100.91511	1136.89974	-653.03773	
3	0.02000000	-1114.86642	770.93460	-448.08716	-1113.37202	696.89024	-425.42924	-1178.87716	398.98726	-467.98932	-1246.90463	361.71883	-506.56547	-1078.16115	354.18275	-436.35879	-1033.86982	375.36785	-491.09372	-1136.53122	770.52924	-722.72593	-1115.91067	705.84203	-728.47484	-1177.46329	401.51928	-722.04894	-1246.93169	364.46547	-675.46422	-1085.26672	351.76302	-750.84291	-1035.69190	374.50128	-695.92940	-1130.61290	586.13474	-424.36259	-1187.25361	706.16575	-437.76678	-1211.70555	593.38710	-438.54758	-1202.43682	721.81754	-749.04552	-1209.34651	599.60499	-756.12138	-1031.42526	1080.19660	-444.75680	-1028.12879	967.37925	-441.93642	-1077.10381	942.98529	-403.67024	-1127.42941	1078.91175	-383.75036	-1130.91649	962.39577	-399.39434	-1046.99785	1049.50822	-747.10919	-1054.02320	909.59334	-735.66473	-1159.18764	1053.77274	-767.67214	-1161.49089	912.87219	-749.88472	-1044.19117	1230.36519	-452.62773	-1225.90412	1244.16022	-531.66550	-1031.70403	1218.44541	-709.13030	-1223.70633	1235.92404	-640.30937	-1167.26439	1708.70408	-599.90173	-1118.91907	1655.52562	-439.50302	-1089.52508	1652.37585	-759.48795	-1054.09442	1622.37415	-571.47226	-1049.54650	1623.16407	-613.46373	-1106.51842	1411.95063	-368.58731	-1136.37686	1309.40301	-431.08247	-1135.52451	1325.81802	-360.96832	-1075.28936	1221.05723	-335.29010	-1035.64026	1108.99947	-326.67596	-1077.68919	1095.42944	-328.73236	-1050.95768	1517.92832	-797.65637	-1112.54347	1306.99479	-750.90726	-1095.09182	1312.70533	-809.68763	-1031.06631	1221.87333	-820.49396	-999.70309	1100.32176	-801.86157	-1032.24049	1087.36560	-816.31951	-1108.52461	1153.50771	-478.99379	-1097.65403	1147.01675	-678.88563	-1103.81978	1149.86543	-484.14024	-1100.39801	1137.04169	-653.29480	
4	0.03000000	-1114.16231	770.87624	-448.33940	-1112.51098	696.79280	-425.56855	-1179.00405	399.04229	-467.91012	-1247.02413	361.61806	-506.48633	-1078.21250	354.37770	-436.47015	-1034.04589	375.76373	-491.13963	-1135.01438	770.40560	-722.83442	-1114.29936	705.50195	-728.61581	-1177.45014	401.46096	-722.25878	-1246.97237	364.39499	-675.50106	-1085.36643	351.80389	-750.69887	-1035.77297	374.66518	-695.88557	-1129.92320	585.85351	-424.67781	-1186.31570	706.18283	-437.74280	-1211.19172	593.50778	-438.44301	-1200.70703	721.76920	-749.53974	-1208.27400	599.43326	-756.02498	-1030.08380	1080.30530	-445.70809	-1027.16923	967.42623	-442.08272	-1076.11020	942.73935	-403.75137	-1126.32123	1078.69629	-383.75238	-1129.74235	962.20264	-399.37483	-1046.31177	1049.42312	-747.30063	-1053.14188	909.50508	-735.71366	-1158.48346	1053.53152	-767.70980	-1160.66155	912.63536	-749.81020	-1043.32236	1230.24392	-452.86221	-1225.07737	1244.35078	-531.57268	-1031.27965	1218.46216	-709.24305	-1223.06250	1236.17669	-640.16660	-1165.89412	1708.70824	-599.80206	-1117.51748	1655.89890	-439.45778	-1087.97728	1652.42143	-759.38989	-1052.17561	1623.01691	-570.82057	-1048.01193	1623.20520	-613.44217	-1105.39461	1412.05794	-368.60701	-1135.36861	1309.75706	-431.12128	-1134.36034	1325.90804	-361.18817	-1073.80653	1221.11508	-335.61151	-1033.95614	1109.11411	-327.04236	-1076.01330	1095.67478	-328.94758	-1049.30901	1518.04969	-797.56468	-1110.97917	1307.14295	-750.69956	-1093.34597	1312.85751	-809.73773	-1029.92764	1221.81251	-819.47437	-998.13444	1100.39973	-801.15899	-1030.66446	1087.49307	-815.94115	-1107.78704	1153.49839	-479.10285	-1097.23947	1147.10641	-679.01510	-1103.10977	1149.89575	-484.30444	-1099.97304	1137.16963	-653.37330	
